<svg width="348" height="280" viewBox="0 0 348 280" fill="none" xmlns="http://www.w3.org/2000/svg">
<path d="M123.054 0.704012C133.689 -0.234671 145.015 -0.234671 157.035 0.704012C175.805 2.18614 193.166 8.41109 209.266 17.6003C234.64 31.977 254.079 52.2823 266.766 78.6643C268.917 83.1848 271.588 84.7408 276.559 84.7408C290.656 84.8891 304.159 87.9275 316.326 95.4864C319.071 97.1908 321.52 99.3398 323.523 101.859C324.859 103.49 325.081 105.268 323.671 106.973C322.336 108.677 320.481 109.048 318.626 108.307C317.142 107.714 315.807 106.751 314.546 105.787C303.714 97.6356 291.027 94.5972 277.895 92.8187C275.001 92.4481 273.888 93.7819 274.481 96.5979C274.778 97.9319 275.075 99.1918 275.446 100.452C278.414 110.752 279.972 121.276 280.788 131.947C281.011 134.911 281.975 136.764 284.201 138.69C298.52 151.659 312.913 164.554 326.342 178.412C333.316 185.6 339.326 193.307 343.629 202.422C351.939 220.208 348.006 240.217 335.171 253.63C323.894 265.487 309.872 272.156 294.217 276.01C274.927 280.827 255.785 281.864 236.495 275.862C228.482 273.342 221.063 269.637 214.089 265.19C210.454 262.893 207.783 262.374 203.85 264.449C179.886 276.973 154.067 281.272 127.506 278.604C87.5158 274.602 54.5744 256.891 29.794 224.802C14.4361 204.868 4.12342 182.636 1.15571 157.736C-1.66361 133.874 0.487702 110.159 9.6876 87.5569C23.5616 53.6161 47.1549 28.6422 80.0964 12.5611C93.5995 5.96563 110.961 2.03801 123.054 0.555881V0.704012ZM139.97 267.784C145.164 268.303 150.135 267.043 155.18 266.524C186.638 263.041 212.902 249.258 234.343 226.433C243.766 216.428 243.395 216.206 233.305 206.35C227.889 201.088 222.621 195.753 217.353 190.417C212.605 185.674 208.524 180.338 204.889 174.706C198.953 165.591 194.724 155.735 194.353 144.767C193.834 128.019 201.328 114.828 214.015 104.453C224.327 96.0051 236.198 90.6695 249.182 87.6311C257.121 85.7784 257.343 85.7043 253.188 78.3678C238.053 51.4671 215.944 32.2735 187.602 20.2683C180.034 17.0817 179.812 17.304 176.25 24.8628C164.231 50.2814 152.509 75.774 140.267 101.044C117.712 147.509 97.6062 195.086 75.7936 241.847C72.5291 248.813 72.6773 248.961 79.7256 252.666C98.5705 262.523 118.751 267.117 139.896 267.71L139.97 267.784ZM263.278 271.415C266.84 271.193 271.143 271.786 275.298 270.526C282.94 268.229 285.536 263.116 282.569 255.853C281.159 252.37 279.007 249.258 276.336 246.59C269.733 239.92 263.204 233.25 256.008 227.174C253.337 224.876 251.927 224.654 249.776 227.47C242.134 237.623 232.637 245.774 222.547 253.333C218.689 256.223 218.689 256.594 223.215 259.336C235.234 266.821 248.069 271.638 263.204 271.341L263.278 271.415ZM266.691 118.385C266.395 111.271 264.54 105.491 262.611 99.7105C261.646 96.9686 259.643 96.9686 258.011 99.2659C256.824 100.896 256.75 102.749 256.75 104.602C256.75 110.308 259.866 114.606 263.353 118.756C264.169 119.719 264.911 121.201 266.395 120.534C266.914 120.312 266.691 118.608 266.766 118.459L266.691 118.385Z" fill="#1c1c1c"/>
</svg>
